<mxfile host="app.diagrams.net" agent="Mozilla/5.0 (Windows NT 10.0; Win64; x64) AppleWebKit/537.36 (KHTML, like Gecko) Chrome/109.0.0.0 Safari/537.36" version="24.8.6">
  <diagram id="CIG-sMGoTTnNHQnMcfym" name="Trang-4">
    <mxGraphModel dx="1947" dy="437" grid="1" gridSize="10" guides="1" tooltips="1" connect="1" arrows="1" fold="1" page="1" pageScale="1" pageWidth="827" pageHeight="1169" math="0" shadow="0">
      <root>
        <mxCell id="0" />
        <mxCell id="1" parent="0" />
        <mxCell id="8FjNMa35b1P51lHcm8GF-1" style="edgeStyle=orthogonalEdgeStyle;rounded=0;orthogonalLoop=1;jettySize=auto;html=1;exitX=0.5;exitY=1;exitDx=0;exitDy=0;entryX=0.5;entryY=0;entryDx=0;entryDy=0;" edge="1" parent="1" source="8FjNMa35b1P51lHcm8GF-2" target="8FjNMa35b1P51lHcm8GF-4">
          <mxGeometry relative="1" as="geometry" />
        </mxCell>
        <mxCell id="8FjNMa35b1P51lHcm8GF-2" value="Start" style="ellipse;whiteSpace=wrap;html=1;" vertex="1" parent="1">
          <mxGeometry x="540" width="120" height="80" as="geometry" />
        </mxCell>
        <mxCell id="8FjNMa35b1P51lHcm8GF-63" style="edgeStyle=orthogonalEdgeStyle;rounded=0;orthogonalLoop=1;jettySize=auto;html=1;exitX=0.5;exitY=1;exitDx=0;exitDy=0;entryX=0.5;entryY=0;entryDx=0;entryDy=0;" edge="1" parent="1" source="8FjNMa35b1P51lHcm8GF-4" target="8FjNMa35b1P51lHcm8GF-31">
          <mxGeometry relative="1" as="geometry" />
        </mxCell>
        <mxCell id="8FjNMa35b1P51lHcm8GF-4" value="Nhập điểm" style="rounded=0;whiteSpace=wrap;html=1;" vertex="1" parent="1">
          <mxGeometry x="540" y="120" width="120" height="60" as="geometry" />
        </mxCell>
        <mxCell id="8FjNMa35b1P51lHcm8GF-58" style="edgeStyle=orthogonalEdgeStyle;rounded=0;orthogonalLoop=1;jettySize=auto;html=1;exitX=0.5;exitY=1;exitDx=0;exitDy=0;entryX=1;entryY=0.5;entryDx=0;entryDy=0;" edge="1" parent="1" source="8FjNMa35b1P51lHcm8GF-8" target="8FjNMa35b1P51lHcm8GF-57">
          <mxGeometry relative="1" as="geometry" />
        </mxCell>
        <mxCell id="8FjNMa35b1P51lHcm8GF-8" value="Không đạt" style="shape=parallelogram;perimeter=parallelogramPerimeter;whiteSpace=wrap;html=1;fixedSize=1;" vertex="1" parent="1">
          <mxGeometry x="720" y="230" width="120" height="60" as="geometry" />
        </mxCell>
        <mxCell id="8FjNMa35b1P51lHcm8GF-43" value="No" style="edgeStyle=orthogonalEdgeStyle;rounded=0;orthogonalLoop=1;jettySize=auto;html=1;exitX=0;exitY=0.5;exitDx=0;exitDy=0;entryX=1;entryY=0.5;entryDx=0;entryDy=0;" edge="1" parent="1" source="8FjNMa35b1P51lHcm8GF-31" target="8FjNMa35b1P51lHcm8GF-35">
          <mxGeometry relative="1" as="geometry" />
        </mxCell>
        <mxCell id="8FjNMa35b1P51lHcm8GF-45" style="edgeStyle=orthogonalEdgeStyle;rounded=0;orthogonalLoop=1;jettySize=auto;html=1;exitX=1;exitY=0.5;exitDx=0;exitDy=0;" edge="1" parent="1" source="8FjNMa35b1P51lHcm8GF-31" target="8FjNMa35b1P51lHcm8GF-8">
          <mxGeometry relative="1" as="geometry" />
        </mxCell>
        <mxCell id="8FjNMa35b1P51lHcm8GF-31" value="điểm &amp;lt; 4" style="rhombus;whiteSpace=wrap;html=1;" vertex="1" parent="1">
          <mxGeometry x="560" y="220" width="80" height="80" as="geometry" />
        </mxCell>
        <mxCell id="8FjNMa35b1P51lHcm8GF-40" value="No" style="edgeStyle=orthogonalEdgeStyle;rounded=0;orthogonalLoop=1;jettySize=auto;html=1;exitX=0;exitY=0.5;exitDx=0;exitDy=0;entryX=1;entryY=0.5;entryDx=0;entryDy=0;" edge="1" parent="1" source="8FjNMa35b1P51lHcm8GF-32" target="8FjNMa35b1P51lHcm8GF-33">
          <mxGeometry relative="1" as="geometry" />
        </mxCell>
        <mxCell id="8FjNMa35b1P51lHcm8GF-52" value="yes" style="edgeStyle=orthogonalEdgeStyle;rounded=0;orthogonalLoop=1;jettySize=auto;html=1;exitX=0.5;exitY=1;exitDx=0;exitDy=0;entryX=0.5;entryY=0;entryDx=0;entryDy=0;" edge="1" parent="1" source="8FjNMa35b1P51lHcm8GF-32" target="8FjNMa35b1P51lHcm8GF-48">
          <mxGeometry relative="1" as="geometry" />
        </mxCell>
        <mxCell id="8FjNMa35b1P51lHcm8GF-32" value="6&amp;lt; điểm &amp;lt;= 8" style="rhombus;whiteSpace=wrap;html=1;" vertex="1" parent="1">
          <mxGeometry x="250" y="220" width="100" height="80" as="geometry" />
        </mxCell>
        <mxCell id="8FjNMa35b1P51lHcm8GF-41" value="No" style="edgeStyle=orthogonalEdgeStyle;rounded=0;orthogonalLoop=1;jettySize=auto;html=1;exitX=0;exitY=0.5;exitDx=0;exitDy=0;entryX=1;entryY=0.5;entryDx=0;entryDy=0;" edge="1" parent="1" source="8FjNMa35b1P51lHcm8GF-33" target="8FjNMa35b1P51lHcm8GF-34">
          <mxGeometry relative="1" as="geometry" />
        </mxCell>
        <mxCell id="8FjNMa35b1P51lHcm8GF-33" value="8 &amp;lt; điểm &amp;lt;= 9" style="rhombus;whiteSpace=wrap;html=1;" vertex="1" parent="1">
          <mxGeometry x="110" y="220" width="100" height="80" as="geometry" />
        </mxCell>
        <mxCell id="8FjNMa35b1P51lHcm8GF-34" value="9 &amp;lt; điểm &amp;lt;= 10" style="rhombus;whiteSpace=wrap;html=1;" vertex="1" parent="1">
          <mxGeometry x="-40" y="220" width="100" height="80" as="geometry" />
        </mxCell>
        <mxCell id="8FjNMa35b1P51lHcm8GF-39" style="edgeStyle=orthogonalEdgeStyle;rounded=0;orthogonalLoop=1;jettySize=auto;html=1;exitX=0;exitY=0.5;exitDx=0;exitDy=0;entryX=1;entryY=0.5;entryDx=0;entryDy=0;" edge="1" parent="1" source="8FjNMa35b1P51lHcm8GF-35" target="8FjNMa35b1P51lHcm8GF-32">
          <mxGeometry relative="1" as="geometry" />
        </mxCell>
        <mxCell id="8FjNMa35b1P51lHcm8GF-44" value="No" style="edgeStyle=orthogonalEdgeStyle;rounded=0;orthogonalLoop=1;jettySize=auto;html=1;" edge="1" parent="1" source="8FjNMa35b1P51lHcm8GF-35" target="8FjNMa35b1P51lHcm8GF-32">
          <mxGeometry relative="1" as="geometry" />
        </mxCell>
        <mxCell id="8FjNMa35b1P51lHcm8GF-51" value="Yes" style="edgeStyle=orthogonalEdgeStyle;rounded=0;orthogonalLoop=1;jettySize=auto;html=1;exitX=0.5;exitY=1;exitDx=0;exitDy=0;entryX=0.5;entryY=0;entryDx=0;entryDy=0;" edge="1" parent="1" source="8FjNMa35b1P51lHcm8GF-35" target="8FjNMa35b1P51lHcm8GF-49">
          <mxGeometry relative="1" as="geometry" />
        </mxCell>
        <mxCell id="8FjNMa35b1P51lHcm8GF-35" value="4 &amp;lt;= điểm &amp;lt;= 6" style="rhombus;whiteSpace=wrap;html=1;" vertex="1" parent="1">
          <mxGeometry x="390" y="220" width="100" height="80" as="geometry" />
        </mxCell>
        <mxCell id="8FjNMa35b1P51lHcm8GF-61" style="edgeStyle=orthogonalEdgeStyle;rounded=0;orthogonalLoop=1;jettySize=auto;html=1;exitX=0.5;exitY=1;exitDx=0;exitDy=0;entryX=0.5;entryY=0;entryDx=0;entryDy=0;" edge="1" parent="1" source="8FjNMa35b1P51lHcm8GF-46" target="8FjNMa35b1P51lHcm8GF-57">
          <mxGeometry relative="1" as="geometry" />
        </mxCell>
        <mxCell id="8FjNMa35b1P51lHcm8GF-46" value="giỏi" style="shape=parallelogram;perimeter=parallelogramPerimeter;whiteSpace=wrap;html=1;fixedSize=1;" vertex="1" parent="1">
          <mxGeometry x="90" y="360" width="120" height="60" as="geometry" />
        </mxCell>
        <mxCell id="8FjNMa35b1P51lHcm8GF-62" style="edgeStyle=orthogonalEdgeStyle;rounded=0;orthogonalLoop=1;jettySize=auto;html=1;exitX=0.5;exitY=1;exitDx=0;exitDy=0;" edge="1" parent="1" source="8FjNMa35b1P51lHcm8GF-47" target="8FjNMa35b1P51lHcm8GF-57">
          <mxGeometry relative="1" as="geometry" />
        </mxCell>
        <mxCell id="8FjNMa35b1P51lHcm8GF-47" value="xuất sắc" style="shape=parallelogram;perimeter=parallelogramPerimeter;whiteSpace=wrap;html=1;fixedSize=1;" vertex="1" parent="1">
          <mxGeometry x="-60" y="360" width="120" height="60" as="geometry" />
        </mxCell>
        <mxCell id="8FjNMa35b1P51lHcm8GF-60" style="edgeStyle=orthogonalEdgeStyle;rounded=0;orthogonalLoop=1;jettySize=auto;html=1;exitX=0.5;exitY=1;exitDx=0;exitDy=0;" edge="1" parent="1" source="8FjNMa35b1P51lHcm8GF-48">
          <mxGeometry relative="1" as="geometry">
            <mxPoint x="440" y="520" as="targetPoint" />
          </mxGeometry>
        </mxCell>
        <mxCell id="8FjNMa35b1P51lHcm8GF-48" value="khá" style="shape=parallelogram;perimeter=parallelogramPerimeter;whiteSpace=wrap;html=1;fixedSize=1;" vertex="1" parent="1">
          <mxGeometry x="240" y="360" width="120" height="60" as="geometry" />
        </mxCell>
        <mxCell id="8FjNMa35b1P51lHcm8GF-59" style="edgeStyle=orthogonalEdgeStyle;rounded=0;orthogonalLoop=1;jettySize=auto;html=1;exitX=0.5;exitY=1;exitDx=0;exitDy=0;entryX=0.5;entryY=0;entryDx=0;entryDy=0;" edge="1" parent="1" source="8FjNMa35b1P51lHcm8GF-49" target="8FjNMa35b1P51lHcm8GF-57">
          <mxGeometry relative="1" as="geometry" />
        </mxCell>
        <mxCell id="8FjNMa35b1P51lHcm8GF-49" value="trung bình" style="shape=parallelogram;perimeter=parallelogramPerimeter;whiteSpace=wrap;html=1;fixedSize=1;" vertex="1" parent="1">
          <mxGeometry x="380" y="360" width="120" height="60" as="geometry" />
        </mxCell>
        <mxCell id="8FjNMa35b1P51lHcm8GF-53" value="Yes" style="edgeStyle=orthogonalEdgeStyle;rounded=0;orthogonalLoop=1;jettySize=auto;html=1;exitX=0.5;exitY=1;exitDx=0;exitDy=0;entryX=0.583;entryY=0.033;entryDx=0;entryDy=0;entryPerimeter=0;" edge="1" parent="1" source="8FjNMa35b1P51lHcm8GF-33" target="8FjNMa35b1P51lHcm8GF-46">
          <mxGeometry relative="1" as="geometry" />
        </mxCell>
        <mxCell id="8FjNMa35b1P51lHcm8GF-54" value="Yes" style="edgeStyle=orthogonalEdgeStyle;rounded=0;orthogonalLoop=1;jettySize=auto;html=1;exitX=0.5;exitY=1;exitDx=0;exitDy=0;entryX=0.583;entryY=0;entryDx=0;entryDy=0;entryPerimeter=0;" edge="1" parent="1" source="8FjNMa35b1P51lHcm8GF-34" target="8FjNMa35b1P51lHcm8GF-47">
          <mxGeometry relative="1" as="geometry" />
        </mxCell>
        <mxCell id="8FjNMa35b1P51lHcm8GF-55" value="" style="ellipse;whiteSpace=wrap;html=1;" vertex="1" parent="1">
          <mxGeometry x="-390" y="505" width="120" height="80" as="geometry" />
        </mxCell>
        <mxCell id="8FjNMa35b1P51lHcm8GF-57" value="END" style="ellipse;whiteSpace=wrap;html=1;aspect=fixed;" vertex="1" parent="1">
          <mxGeometry x="400" y="520" width="80" height="80" as="geometry" />
        </mxCell>
      </root>
    </mxGraphModel>
  </diagram>
</mxfile>
